<?xml version="1.0" encoding="iso-8859-1"?>
<svg version="1.1" id="Capa_1" xmlns="http://www.w3.org/2000/svg" xmlns:xlink="http://www.w3.org/1999/xlink" x="0px" y="0px"
	 viewBox="-30 0 344 314" style="enable-background:new 0 0 314 314;" xml:space="preserve">
<g>
	<path style="fill:#4A566E;" d="M35.6,19.9h180c19.6,0,35.6,16,35.6,35.6v185.2c0,19.6-16,35.6-35.6,35.6h-180
		C16,276.3,0,260.3,0,240.7V55.5C0,35.9,16,19.9,35.6,19.9z"/>
	<path style="fill:#00B594;" d="M116,187.9l-52.4-53.2L0,198.7v13.2v28.8c0,19.6,16,35.6,35.6,35.6h180c19.6,0,35.6-16,35.6-35.6
		v-28.8v-39.6l-59.6-60L116,187.9z"/>
	<circle style="fill:#FFCC03;" cx="114.8" cy="105.1" r="22.4"/>
</g>
<path style="fill:#F05F61;" d="M199.2,196.3c0.4-0.4,0.8-0.8,1.2-1.2 M198.8,196.7C198.8,196.7,199.2,196.3,198.8,196.7
	c7.2-7.2,16.4-10.4,25.2-10.4c9.2,0,18,3.6,25.2,10.4l2,2l2-2c6.8-6.8,16-10.4,25.2-10.4s18,3.6,25.2,10.4l0,0
	c6.8,6.8,10.4,16,10.4,24.8c0,9.2-3.6,18-10.4,25.2l0,0l-45.2,44.4c-4,4-10.8,4-14.8,0l-44.4-44.4l0,0c-6.8-6.8-10.4-16-10.4-25.2
	C188.8,212.7,192,203.5,198.8,196.7z"/>
</svg>
